<?xml version="1.0" encoding="UTF-8" standalone="no"?>
<svg
   xmlns:dc="http://purl.org/dc/elements/1.1/"
   xmlns:cc="http://creativecommons.org/ns#"
   xmlns:rdf="http://www.w3.org/1999/02/22-rdf-syntax-ns#"
   xmlns:svg="http://www.w3.org/2000/svg"
   xmlns="http://www.w3.org/2000/svg"
   viewBox="0 0 300 300"
   height="300"
   width="300"
   xml:space="preserve"
   id="svg2"
   version="1.1"><metadata
     id="metadata8"><rdf:RDF><cc:Work
         rdf:about=""><dc:format>image/svg+xml</dc:format><dc:type
           rdf:resource="http://purl.org/dc/dcmitype/StillImage" /><dc:title></dc:title></cc:Work></rdf:RDF></metadata><defs
     id="defs6"><clipPath
       id="clipPath18"
       clipPathUnits="userSpaceOnUse"><path
         id="path16"
         d="M 0,360 H 360 V 0 H 0 Z" /></clipPath></defs><g
     transform="matrix(1.3333333,0,0,-1.3333333,0,300)"
     id="g10"><g
       id="g12"><g
         clip-path="url(#clipPath18)"
         id="g14"><g
           transform="translate(131.3667,239.2236)"
           id="g72"><path
             id="path74"
             style="fill:#0080b7;fill-opacity:1;fill-rule:nonzero;stroke:none"
             d="m -76.474578,-97.67797 c -3.424,5.193001 -6.596,10.396001 -6.887,16.889001 -0.291,6.508 2.466,11.309 7.723,14.852 8.227,5.543 17.6,7.55 27.233,8.63 4.189,0.469 8.412,0.635 12.259,0.914 11.784,-0.8 23.22,-1.348 33.883,-6.213 14.292,-6.521 17.621,-16.741 9.85,-30.405 -4.672,-8.214001 -4.723,-8.341001 -13.152,-4.972001 -21.704,8.675001 -43.184,8.040001 -64.362,-1.578 -3.245,-1.474 -4.794,-0.775 -6.547,1.883 m 75.4,-106.767 c -22.772,0 -41.231,18.459 -41.231,41.231 0,22.771 18.459,41.23 41.231,41.23 16.933,0 31.466,-10.215 37.812,-24.813 -1.164,5.601 -3.108,11.29 -5.959,16.992 -1.031,2.065 -0.547,5.198 -0.02,7.675 2.12,9.964 5.65,19.76 6.6,29.813001 1.762,18.66 -4.369,34.767 -19.453,46.741 -15.8620004,12.59 -34.304,16.938 -56.155,16.652 -13.019,0.44 -27.418,-2.175 -40.727,-9.407 -18.327002,-9.958 -29.784002,-24.498 -30.751002,-46.17 -0.53,-11.868 2.453,-22.987001 6.184,-34.006001 1.751,-5.169 1.806,-9.743 -0.789,-15.021 -10.673,-21.699 -6.19,-49.645 10.201,-67.406 23.176002,-25.111 58.542002,-32.562 90.314002,-18.853 13.832,5.968 25.499,16.078 32.983,28.614 -7.531,-8.143 -18.273,-13.272 -30.24,-13.272" /></g><g
           transform="translate(142.11622,68.184331)"
           id="g76"><path
             id="path78"
             style="fill:#5c5b5f;fill-opacity:1;fill-rule:nonzero;stroke:none"
             d="m 0,0 c 10.598,8.157 21,16.75 32.026,24.448 7.49,5.227 15.871,9.171 23.819,13.749 2.753,1.586 5.54,2.005 8.599,1.077 1.447,-0.439 2.985,-0.575 4.482,-0.848 0.11,-0.231 0.22,-0.462 0.331,-0.693 C 68.601,37.43 67.912,37.178 67.29,36.814 40.999,21.433 18.96,1.351 0.965,-23.2 c -0.558,-0.76 -1.062,-1.578 -1.72,-2.241 -2.275,-2.296 -5.741,-1.539 -6.856,1.502 -0.41,1.121 -0.63,2.311 -0.93,3.472 -3.865,15.012 -11.724,27.517 -23.559,37.526 -0.516,0.437 -1.014,0.895 -1.559,1.377 5.425,1.962 11.209,1.547 15.721,-1.513 3.463,-2.349 6.89,-4.848 9.915,-7.72 C -5.006,6.337 -2.51,2.923 0,0" /></g></g></g></g></svg>