<?xml version="1.0" encoding="UTF-8" standalone="no"?>
<svg
   xmlns:dc="http://purl.org/dc/elements/1.1/"
   xmlns:cc="http://creativecommons.org/ns#"
   xmlns:rdf="http://www.w3.org/1999/02/22-rdf-syntax-ns#"
   xmlns:svg="http://www.w3.org/2000/svg"
   xmlns="http://www.w3.org/2000/svg"
   viewBox="0 0 444.00296 60.0004"
   height="40"
   width="296"
   xml:space="preserve"
   id="svg2"
   version="1.1"><metadata
     id="metadata8"><rdf:RDF><cc:Work
         rdf:about=""><dc:format>image/svg+xml</dc:format><dc:type
           rdf:resource="http://purl.org/dc/dcmitype/StillImage" /><dc:title></dc:title></cc:Work></rdf:RDF></metadata><defs
     id="defs6"><clipPath
       id="clipPath18"
       clipPathUnits="userSpaceOnUse"><path
         id="path16"
         d="M 0,360 H 360 V 0 H 0 Z" /></clipPath></defs><g
     transform="matrix(1.3333333,0,0,-1.3333333,0,39.9956)"
     id="g10"><g
       id="g12"><g
         transform="translate(4.5000302,-13.50009)"
         clip-path="url(#clipPath18)"
         id="g14"><g
           transform="translate(26.859954,6.411701)"
           id="g20"><path
             id="path22"
             style="fill:#0080b7;fill-opacity:1;fill-rule:nonzero;stroke:none"
             d="m 0,0 c -1.626,-2.489 -4.93,-4.165 -11.077,-4.165 -0.914,0 -1.828,0.05 -2.794,0.151 -1.068,0.103 -7.164,0.407 -9.248,5.336 -0.61,1.422 -0.762,2.642 -0.762,5.538 v 14.937 c 0,0.864 0,1.728 0.102,2.592 0.153,1.728 0.508,5.03 4.47,7.063 2.338,1.219 5.488,1.574 8.03,1.574 6.401,0 10.109,-2.338 11.481,-4.825 1.016,-1.83 1.068,-3.66 1.068,-5.641 v -3.405 h -9.908 v 4.268 c 0,1.576 -0.761,2.49 -2.489,2.49 -1.778,0 -2.694,-0.812 -2.694,-2.49 V 5.183 c 0,-1.626 0.916,-2.336 2.592,-2.336 1.778,0 2.591,0.761 2.591,2.59 V 9.756 H 1.372 V 7.266 C 1.372,4.522 1.372,2.084 0,0" /></g><g
           transform="translate(44.699854,21.757401)"
           id="g24"><path
             id="path26"
             style="fill:#0080b7;fill-opacity:1;fill-rule:nonzero;stroke:none"
             d="m 0,0 c 0,0.914 -0.05,2.642 -2.49,2.642 -1.778,0 -2.388,-0.914 -2.388,-2.491 v -10.619 c 0,-0.811 -0.101,-2.845 2.49,-2.845 2.592,0 2.388,2.185 2.388,2.948 z m 9.298,-13.567 c -1.169,-5.284 -6.758,-5.894 -11.076,-5.894 -3.608,0 -8.993,0.152 -11.331,3.354 -1.422,1.982 -1.27,4.927 -1.27,5.435 V 0.254 c 0,2.286 0.102,4.267 1.83,5.995 0.405,0.406 1.117,1.017 2.336,1.574 2.744,1.17 6.961,1.118 7.419,1.118 0.864,0 2.286,0 4.318,-0.303 C 2.084,8.535 6.556,8.077 8.436,5.233 9.451,3.708 9.501,1.93 9.501,0.151 v -10.365 c 0,-0.254 0.051,-2.083 -0.203,-3.353" /></g><g
           transform="translate(70.721354,2.906901)"
           id="g28"><path
             id="path30"
             style="fill:#0080b7;fill-opacity:1;fill-rule:nonzero;stroke:none"
             d="m 0,0 v 19.358 c 0,0.558 0.153,2.54 -2.032,2.54 -2.082,0 -2.032,-2.032 -2.032,-2.54 V 0 h -9.603 v 27.082 h 9.603 v -2.694 c 0.406,0.508 0.914,1.27 2.236,2.084 0.712,0.456 2.032,1.168 4.165,1.168 0.763,0 2.491,-0.05 4.218,-1.118 3.048,-1.879 3.1,-4.877 3.1,-8.028 V 0 Z" /></g><g
           transform="translate(92.930754,2.906901)"
           id="g32"><path
             id="path34"
             style="fill:#0080b7;fill-opacity:1;fill-rule:nonzero;stroke:none"
             d="m 0,0 c -2.082,0 -4.064,0.102 -5.538,1.829 -1.27,1.473 -1.321,3.048 -1.321,4.878 v 15.142 h -4.064 v 5.233 h 4.064 v 8.789 H 2.49 V 27.082 H 6.758 V 21.849 H 2.49 V 7.875 C 2.49,6.352 2.948,5.589 4.877,5.537 L 7.012,5.487 V 0 Z" /></g><g
           transform="translate(113.36095,21.401001)"
           id="g36"><path
             id="path38"
             style="fill:#0080b7;fill-opacity:1;fill-rule:nonzero;stroke:none"
             d="m 0,0 c -1.982,-0.458 -2.236,-2.134 -2.236,-3.861 v -14.633 h -9.603 V 8.588 h 9.603 V 4.37 c 0.356,0.558 0.66,1.118 1.068,1.626 C 0.508,8.282 2.49,8.74 3.556,8.942 V 0.152 C 2.744,0.152 0.914,0.204 0,0" /></g><g
           transform="translate(132.57095,21.757401)"
           id="g40"><path
             id="path42"
             style="fill:#0080b7;fill-opacity:1;fill-rule:nonzero;stroke:none"
             d="m 0,0 c 0,0.914 -0.05,2.642 -2.49,2.642 -1.778,0 -2.388,-0.914 -2.388,-2.491 v -10.619 c 0,-0.811 -0.101,-2.845 2.49,-2.845 2.592,0 2.388,2.185 2.388,2.948 z m 9.297,-13.567 c -1.168,-5.284 -6.757,-5.894 -11.075,-5.894 -3.608,0 -8.993,0.152 -11.331,3.354 -1.422,1.982 -1.27,4.927 -1.27,5.435 V 0.254 c 0,2.286 0.102,4.267 1.83,5.995 0.405,0.406 1.117,1.017 2.336,1.574 2.743,1.17 6.961,1.118 7.419,1.118 0.864,0 2.286,0 4.318,-0.303 C 2.083,8.535 6.555,8.077 8.435,5.233 9.451,3.708 9.501,1.93 9.501,0.151 v -10.365 c 0,-0.254 0.052,-2.083 -0.204,-3.353" /></g><path
           id="path44"
           style="fill:#0080b7;fill-opacity:1;fill-rule:nonzero;stroke:none"
           d="m 144.97435,38.777901 h 9.552 v -35.871 h -9.552 z" /><g
           transform="translate(185.51725,19.830701)"
           id="g46"><path
             id="path48"
             style="fill:#5c5b5f;fill-opacity:1;fill-rule:nonzero;stroke:none"
             d="m 0,0 h -16.602 v -16.924 h -2.977 V 19.207 H 2.532 v -2.53 H -16.602 V 2.557 H 0 Z" /></g><path
           id="path50"
           style="fill:#5c5b5f;fill-opacity:1;fill-rule:nonzero;stroke:none"
           d="m 196.55935,2.906901 h -2.952 v 26.85 h 2.952 z m 0,34.543 h -2.952 v 4.169 h 2.952 z" /><g
           transform="translate(209.41465,36.631501)"
           id="g52"><path
             id="path54"
             style="fill:#5c5b5f;fill-opacity:1;fill-rule:nonzero;stroke:none"
             d="M 0,0 V -6.875 H 5.907 V -9.307 H 0 v -17.495 c 0,-1.753 0.319,-2.998 0.956,-3.735 0.637,-0.735 1.485,-1.105 2.543,-1.105 0.364,0 0.716,0.023 1.057,0.064 0.337,0.04 0.738,0.11 1.203,0.211 l 0.445,-2.209 c -0.397,-0.199 -0.889,-0.36 -1.476,-0.484 -0.587,-0.125 -1.17,-0.186 -1.75,-0.186 -1.885,0 -3.354,0.597 -4.404,1.786 -1.051,1.191 -1.575,3.078 -1.575,5.658 v 17.495 h -4.643 v 2.432 h 4.643 V 0 Z" /></g><g
           transform="translate(223.75845,29.756501)"
           id="g56"><path
             id="path58"
             style="fill:#5c5b5f;fill-opacity:1;fill-rule:nonzero;stroke:none"
             d="m 0,0 0.272,-4.666 c 0.878,1.64 2.044,2.908 3.499,3.811 1.457,0.9 3.186,1.351 5.188,1.351 2.911,0 5.128,-0.889 6.65,-2.667 1.521,-1.779 2.284,-4.554 2.284,-8.326 V -26.85 h -2.979 v 16.329 c 0,3.077 -0.574,5.252 -1.725,6.526 -1.151,1.274 -2.783,1.911 -4.9,1.911 -2.119,0 -3.827,-0.521 -5.125,-1.563 C 1.865,-4.688 0.926,-6.088 0.347,-7.841 V -26.85 H -2.632 V 0 Z" /></g><g
           transform="translate(259.34535,27.723301)"
           id="g60"><path
             id="path62"
             style="fill:#5c5b5f;fill-opacity:1;fill-rule:nonzero;stroke:none"
             d="M 0,0 C -2.284,0 -4.161,-0.821 -5.634,-2.459 -7.107,-4.096 -7.966,-6.172 -8.215,-8.687 L -8.14,-8.835 H 7.245 v 0.62 c 0,2.383 -0.625,4.346 -1.873,5.894 C 4.122,-0.774 2.332,0 0,0 m 0.272,-25.338 c -3.474,0 -6.294,1.228 -8.462,3.685 -2.167,2.458 -3.25,5.612 -3.25,9.467 v 1.366 c 0,3.87 1.094,7.063 3.287,9.578 2.192,2.514 4.909,3.771 8.153,3.771 3.258,0 5.776,-1.046 7.556,-3.137 1.778,-2.094 2.667,-4.911 2.667,-8.452 v -2.307 H -8.462 v -0.819 c 0,-3.061 0.772,-5.599 2.319,-7.618 1.547,-2.018 3.685,-3.028 6.415,-3.028 1.638,0 3.143,0.27 4.517,0.808 1.372,0.536 2.515,1.261 3.424,2.17 l 1.265,-2.036 c -0.943,-0.992 -2.179,-1.814 -3.709,-2.467 -1.532,-0.654 -3.363,-0.981 -5.497,-0.981" /></g><g
           transform="translate(291.65395,9.780901)"
           id="g64"><path
             id="path66"
             style="fill:#5c5b5f;fill-opacity:1;fill-rule:nonzero;stroke:none"
             d="m 0,0 c 0,1.257 -0.518,2.353 -1.552,3.287 -1.033,0.936 -2.899,1.701 -5.594,2.296 -3.177,0.662 -5.54,1.567 -7.085,2.717 -1.548,1.15 -2.322,2.759 -2.322,4.828 0,2.05 0.865,3.788 2.594,5.21 1.73,1.422 4.015,2.134 6.861,2.134 2.994,0 5.386,-0.757 7.172,-2.271 1.786,-1.513 2.639,-3.379 2.557,-5.595 L 2.58,12.458 h -2.754 c 0,1.472 -0.633,2.754 -1.897,3.845 -1.267,1.093 -2.942,1.639 -5.027,1.639 -2.151,0 -3.771,-0.473 -4.863,-1.416 -1.093,-0.942 -1.639,-2.044 -1.639,-3.299 0,-1.226 0.468,-2.238 1.402,-3.04 0.935,-0.804 2.801,-1.511 5.596,-2.123 3.143,-0.695 5.523,-1.663 7.135,-2.902 1.613,-1.242 2.42,-2.913 2.42,-5.014 0,-2.233 -0.905,-4.048 -2.717,-5.447 -1.811,-1.398 -4.208,-2.097 -7.185,-2.097 -3.259,0 -5.819,0.777 -7.681,2.333 -1.861,1.555 -2.741,3.407 -2.641,5.559 l 0.048,0.15 h 2.731 c 0.115,-1.938 0.905,-3.343 2.369,-4.22 1.464,-0.877 3.188,-1.316 5.174,-1.316 2.15,0 3.846,0.48 5.088,1.44 C -0.621,-2.491 0,-1.34 0,0" /></g><g
           transform="translate(317.53675,9.780901)"
           id="g68"><path
             id="path70"
             style="fill:#5c5b5f;fill-opacity:1;fill-rule:nonzero;stroke:none"
             d="m 0,0 c 0,1.257 -0.518,2.353 -1.552,3.287 -1.033,0.936 -2.899,1.701 -5.594,2.296 -3.177,0.662 -5.541,1.567 -7.086,2.717 -1.547,1.15 -2.321,2.759 -2.321,4.828 0,2.05 0.864,3.788 2.593,5.21 1.73,1.422 4.016,2.134 6.861,2.134 2.995,0 5.386,-0.757 7.172,-2.271 C 1.86,16.688 2.712,14.822 2.63,12.606 L 2.58,12.458 h -2.754 c 0,1.472 -0.633,2.754 -1.898,3.845 -1.267,1.093 -2.941,1.639 -5.027,1.639 -2.15,0 -3.771,-0.473 -4.862,-1.416 -1.093,-0.942 -1.64,-2.044 -1.64,-3.299 0,-1.226 0.468,-2.238 1.403,-3.04 0.935,-0.804 2.801,-1.511 5.595,-2.123 3.144,-0.695 5.524,-1.663 7.136,-2.902 1.613,-1.242 2.42,-2.913 2.42,-5.014 0,-2.233 -0.906,-4.048 -2.718,-5.447 -1.81,-1.398 -4.207,-2.097 -7.184,-2.097 -3.259,0 -5.82,0.777 -7.681,2.333 -1.861,1.555 -2.742,3.407 -2.641,5.559 l 0.048,0.15 h 2.731 c 0.115,-1.938 0.905,-3.343 2.369,-4.22 1.464,-0.877 3.188,-1.316 5.174,-1.316 2.15,0 3.846,0.48 5.088,1.44 C -0.621,-2.491 0,-1.34 0,0" /></g></g></g></g></svg>